<?xml version="1.0" encoding="UTF-8" standalone="no"?>
<!-- Created with Inkscape (http://www.inkscape.org/) -->

<svg
   width="1024"
   height="1024"
   viewBox="0 0 270.93333 270.93333"
   version="1.1"
   id="svg1"
   xml:space="preserve"
   inkscape:version="1.4.3 (0d15f75, 2025-12-25)"
   sodipodi:docname="missing_album_art.svg"
   xmlns:inkscape="http://www.inkscape.org/namespaces/inkscape"
   xmlns:sodipodi="http://sodipodi.sourceforge.net/DTD/sodipodi-0.dtd"
   xmlns="http://www.w3.org/2000/svg"
   xmlns:svg="http://www.w3.org/2000/svg"><sodipodi:namedview
     id="namedview1"
     pagecolor="#ffffff"
     bordercolor="#000000"
     borderopacity="0.25"
     inkscape:showpageshadow="2"
     inkscape:pageopacity="0.0"
     inkscape:pagecheckerboard="0"
     inkscape:deskcolor="#d1d1d1"
     inkscape:document-units="px"
     inkscape:zoom="0.89887065"
     inkscape:cx="541.79097"
     inkscape:cy="560.70359"
     inkscape:window-width="1734"
     inkscape:window-height="1199"
     inkscape:window-x="679"
     inkscape:window-y="52"
     inkscape:window-maximized="0"
     inkscape:current-layer="layer1" /><defs
     id="defs1" /><g
     inkscape:label="Ebene 1"
     inkscape:groupmode="layer"
     id="layer1"><rect
       style="fill:#f2f2f2;stroke-width:1.21823"
       id="rect2"
       width="270.93332"
       height="270.93332"
       x="0"
       y="0" /><g
       id="g3"
       transform="matrix(5.6601219,0,0,5.6601219,58.911252,30.113118)"
       style="fill:#1a1a1a"><rect
         height="32.841801"
         opacity="0"
         width="26.3379"
         x="0"
         y="0"
         id="rect1"
         style="fill:#1a1a1a" /><path
         d="M 18.6363,3.53516 H 7.34027 C 7.40282,2.64931 7.97728,2.12891 8.91602,2.12891 h 8.14448 c 0.9388,0 1.5132,0.5204 1.5758,1.40625 z"
         fill="#ffffff"
         fill-opacity="0.85"
         id="path1"
         style="fill:#1a1a1a" /><path
         d="M 21.1564,6.942 C 20.8094,6.88925 20.4418,6.86523 20.0586,6.86523 H 5.91797 c -0.3868,0 -0.75751,0.02424 -1.10732,0.07732 C 4.9444,5.91296 5.65963,5.33203 6.80664,5.33203 H 19.1699 c 1.1468,0 1.8542,0.58072 1.9865,1.60997 z"
         fill="#ffffff"
         fill-opacity="0.85"
         id="path2"
         style="fill:#1a1a1a" /><path
         d="m 23.8574,12.7441 v 14.2188 c 0,2.4902 -1.2793,3.7695 -3.7988,3.7695 H 5.91797 c -2.5293,0 -3.79883,-1.2695 -3.79883,-3.7695 V 12.7441 c 0,-2.4902 1.26953,-3.75972 3.79883,-3.75972 H 20.0586 c 2.5195,0 3.7988,1.27932 3.7988,3.75972 z m -7.1777,0.8204 -3.9258,0.9765 c -0.6738,0.1465 -0.8008,0.293 -0.8008,1.0938 v 6.2988 c 0,0.6055 -0.0488,0.7129 -0.7422,0.9082 l -1.27926,0.332 c -1.23047,0.3223 -2.25586,1.0547 -2.25586,2.3633 0,1.1621 0.87891,1.9922 2.22656,1.9922 1.94336,0 3.22266,-1.377 3.22266,-3.3301 v -4.8926 c 0,-0.4882 0.1074,-0.625 0.4004,-0.6933 l 3.2129,-0.7617 c 0.6543,-0.1465 0.8496,-0.3125 0.8496,-1.0938 v -2.6172 c 0,-0.5273 -0.1856,-0.7519 -0.9082,-0.5761 z"
         fill="#ffffff"
         fill-opacity="0.85"
         id="path3"
         style="fill:#1a1a1a" /></g></g></svg>
